<?xml version="1.0" encoding="utf-8"?>
<!-- Generator: Adobe Illustrator 22.0.0, SVG Export Plug-In . SVG Version: 6.00 Build 0)  -->
<svg version="1.1" id="Layer_1" xmlns="http://www.w3.org/2000/svg" xmlns:xlink="http://www.w3.org/1999/xlink" x="0px" y="0px"
	 viewBox="0 0 360.9 113.4" style="enable-background:new 0 0 360.9 113.4;" xml:space="preserve">
<style type="text/css">
	.st0{fill:#3366B0;}
	.st1{fill:#674FA0;}
	.st2{fill:none;}
</style>
<g>
	<path d="M206.8,113c-0.1-0.1-0.1-0.2-0.2-0.2c-0.2-0.1-0.4-0.2-0.6-0.3c-0.3-0.2-0.4-0.4-0.4-0.7c0-0.3,0-0.6,0.2-0.8
		c0.3-0.7,0.8-1.3,1.4-1.8c0.5-0.5,1.1-1,1.8-1.4c0.9-0.6,1.8-1.1,2.7-1.6c0.2-0.1,0.5-0.3,0.7-0.4c0.1-0.4,0.1-0.7,0-1
		c0,0-0.1-0.1-0.1-0.1c-0.1,0.1-0.3,0.2-0.4,0.3c-0.4,0.3-0.8,0.6-1.2,0.8c-0.5,0.3-1.1,0.5-1.7,0.6c-0.2,0-0.4,0.1-0.6,0.1
		c-0.6,0-1.2-0.2-1.6-0.7c0,0-0.1-0.1-0.2-0.1c-0.2,0-0.4,0.1-0.6,0.2c-0.4,0.2-0.8,0.3-1.3,0.4c-0.5,0.1-0.9,0-1.4-0.1
		c-0.4-0.1-0.7-0.5-0.7-0.9c0-0.3,0-0.6,0.1-0.8c0.3-0.7,0.6-1.3,1-2c0.2-0.3,0.7-0.4,1.1-0.1c0,0,0.1,0.1,0.1,0.2
		c0,0.1,0,0.2-0.1,0.3c-0.2,0.4-0.4,0.8-0.6,1.2c-0.2,0.3-0.3,0.7-0.4,1.1c0,0.1,0,0.2,0,0.3c0,0.2,0.2,0.4,0.4,0.4
		c0.3,0,0.6,0,0.9-0.1c0.8-0.3,1.5-0.8,2.1-1.3c0.1-0.1,0.2-0.2,0.4-0.3c1-0.9,2.2-1.4,3.6-1.5c0.2,0,0.3,0,0.5,0.1
		c0.1,0,0.2,0.1,0.2,0.2c0,0.1,0,0.2-0.1,0.2c-0.2,0-0.3,0.1-0.5,0.1c-0.4,0-0.7,0.2-1.1,0.3c-0.8,0.3-1.4,0.8-2,1.4
		c-0.2,0.2-0.3,0.4-0.3,0.7c-0.1,0.3,0.2,0.6,0.5,0.6c0.4,0,0.7-0.1,1.1-0.3c1.3-0.6,2.3-1.5,2.9-2.8c0-0.1,0.1-0.2,0.1-0.3
		c0.1-0.1,0.2-0.2,0.3-0.2c0.2,0,0.3,0,0.5,0c0.1,0,0.3,0.1,0.3,0.2c0,0.2,0.1,0.4,0.1,0.6c0,0.5,0.1,1.1,0.1,1.6
		c0,0.1,0.2,0.2,0.3,0.2c0.1,0,0.1,0,0.2-0.1c0.8-0.4,1.5-0.7,2.2-1.1c0.2-0.1,0.4-0.3,0.5-0.5c0.2-0.3,0.3-0.6,0.5-0.9
		c0.2-0.3,0.5-0.4,0.9-0.3c0.3,0.1,0.4,0.3,0.3,0.5c-0.2,0.4-0.5,0.9-0.7,1.3c-0.2,0.3-0.3,0.6-0.3,1c0,0.1,0,0.2,0,0.4
		c0,0.1,0.2,0.2,0.3,0.3c0.3,0.1,0.5,0,0.8-0.1c0.4-0.2,0.8-0.4,1.2-0.6c0.7-0.4,1.3-0.9,2-1.5c0-0.1,0.1-0.3,0.1-0.4
		c0-1.3,0.2-2.6,0.4-3.8c0-0.2,0.1-0.4,0.1-0.6c0-0.1-0.1-0.2-0.3-0.2c-0.2,0-0.4,0-0.6,0c-1.2,0-2.4,0-3.7,0.1c-0.2,0-0.5,0-0.7,0
		c-0.1,0-0.2-0.1-0.3-0.1c-0.1,0-0.1-0.2-0.1-0.2c0,0,0.1-0.1,0.1-0.1c0.2,0,0.5-0.1,0.7-0.1c1.4,0,2.7-0.1,4.1-0.1
		c0.3,0,0.6,0,0.9-0.1c0.2-0.3,0.2-0.5,0.3-0.8c0.1-0.3,0.2-0.7,0.3-1c0.1-0.4,0.4-0.6,1-0.4c0.1,0,0.2,0.2,0.2,0.3
		c-0.2,0.5-0.3,1-0.5,1.4c0,0.1-0.1,0.3,0,0.5c0.2,0,0.5,0,0.8,0c1.7,0,3.5,0,5.2-0.1c0.3,0,0.6,0,0.9,0.1c0.1,0,0.2,0.2,0.2,0.2
		c0,0.1-0.1,0.1-0.1,0.2c0,0-0.1,0.1-0.2,0.1c-0.1,0-0.2,0-0.3,0c-0.3,0-0.5,0-0.8,0c-1.6,0-3.1,0-4.7,0c-0.3,0-0.6,0-0.9,0
		c-0.3,0-0.4,0.1-0.5,0.4c-0.2,0.9-0.4,1.9-0.5,2.9c-0.1,1.2-0.1,2.4,0,3.6c0,0.2,0,0.4,0,0.7c0,0.2,0,0.3-0.2,0.4
		c-0.2,0.1-0.5,0.2-0.8,0c-0.1-0.1-0.2-0.2-0.2-0.3c0-0.3-0.1-0.7-0.1-1c0-0.1-0.2-0.1-0.2-0.1c-0.3,0.2-0.6,0.4-0.8,0.5
		c-0.7,0.4-1.3,0.7-2.1,0.9c-0.5,0.1-0.9,0.1-1.4-0.1c-0.4-0.1-0.8-0.4-0.8-0.9c0-0.1,0-0.2,0-0.3c0-0.1-0.1-0.2-0.2-0.1
		c-0.8,0.3-1.6,0.7-2.3,1.1c-0.1,0.4-0.2,0.9-0.2,1.3c-0.3,1.7-1.2,3.2-2.5,4.4c-0.5,0.5-1.1,0.8-1.8,1c-0.2,0.1-0.5,0.1-0.6,0.3
		H206.8z M207.5,112.2c0.3,0,0.6,0,0.8-0.1c0.5-0.1,0.9-0.4,1.2-0.7c0.8-0.6,1.4-1.3,1.8-2.1c0.4-0.8,0.7-1.6,0.8-2.5
		c0,0-0.1-0.1-0.1-0.1c-0.1,0-0.2,0-0.3,0.1c-1,0.6-1.9,1.2-2.8,1.9c-0.5,0.4-1,0.9-1.5,1.4c-0.2,0.2-0.4,0.5-0.5,0.8
		c-0.1,0.2-0.2,0.5-0.2,0.7c0,0.2,0.2,0.5,0.5,0.5C207.4,112.2,207.5,112.2,207.5,112.2"/>
	<path d="M172.3,113c-0.1-0.1-0.1-0.2-0.2-0.2c-0.2-0.1-0.4-0.2-0.5-0.2c-0.4-0.2-0.6-0.5-0.5-0.9c0-0.3,0.1-0.5,0.2-0.7
		c0.3-0.6,0.8-1.2,1.3-1.8c0.6-0.6,1.3-1.1,2-1.6c0.8-0.5,1.6-1,2.4-1.4c0.2-0.1,0.4-0.2,0.6-0.3c0.1-0.1,0.2-0.2,0.2-0.3
		c0-0.2,0-0.5,0-0.7c0,0,0-0.1,0-0.1c-0.1,0-0.1,0-0.2,0c-0.3,0.2-0.5,0.4-0.8,0.6c-0.7,0.5-1.5,0.9-2.4,1.1
		c-0.5,0.1-0.9,0.1-1.4-0.1c-0.5-0.1-0.8-0.4-0.9-0.8c0-0.1,0-0.2-0.2-0.3c-0.3-0.1-0.5,0-0.8,0.1c-0.6,0.1-1.1,0.1-1.7-0.1
		c-0.2-0.1-0.4-0.2-0.6-0.3c-0.3-0.2-0.4-0.4-0.5-0.7c0-0.2,0-0.5,0-0.7c0-0.2-0.1-0.4-0.2-0.5c-0.1-0.1-0.3-0.2-0.4-0.1
		c-0.2,0.1-0.4,0.2-0.5,0.3c-0.3,0.3-0.6,0.6-0.9,0.9c-0.4,0.4-0.7,0.9-1.1,1.4c-0.1,0.2-0.3,0.4-0.4,0.5c-0.2,0.3-0.5,0.3-0.8,0.3
		c-0.2,0-0.4-0.2-0.4-0.4c0-0.2,0-0.4,0-0.6c0,0-0.1-0.1-0.2-0.1c-0.3,0.1-0.5,0.3-0.8,0.4c-0.6,0.3-1.3,0.6-2,0.7
		c-0.5,0.1-0.9,0-1.4-0.2c-0.4-0.2-0.7-0.6-0.7-1c0-0.2,0.1-0.5,0.2-0.7c0.3-0.7,0.6-1.3,1-1.9c0.2-0.3,0.8-0.4,1.1-0.1
		c0,0,0.1,0.1,0.1,0.2c-0.1,0.3-0.2,0.5-0.4,0.8c-0.3,0.5-0.5,1-0.7,1.5c0,0.2-0.1,0.4-0.1,0.6c0,0.2,0.2,0.3,0.4,0.4
		c0.3,0,0.5,0,0.8-0.1c0.3-0.1,0.6-0.3,0.9-0.4c0.5-0.3,1-0.7,1.5-1c0.5-0.3,0.7-0.7,0.8-1.2c0-0.1,0.1-0.2,0.1-0.3
		c0.1-0.5,0.6-0.6,1-0.3c0.1,0,0.1,0.1,0.1,0.2c0,0.1,0,0.2,0,0.3c-0.1,0.3-0.1,0.5-0.1,0.8c0,0,0,0,0,0l0,0c0.1,0,0.1,0,0.2,0
		c0.1-0.1,0.3-0.3,0.4-0.4c0.2-0.2,0.3-0.3,0.5-0.4c0.6-0.5,1.4-0.5,2.1-0.4c0.6,0.1,0.9,0.5,1,1.1c0,0.2,0,0.5,0,0.7
		c0,0.3,0.2,0.5,0.6,0.6c0.5,0.1,1,0,1.5-0.1c0.6-0.2,1.1-0.5,1.6-0.9c0.7-0.6,1.6-1,2.5-1.2c0.4-0.1,0.7-0.1,1.1-0.2
		c0.2,0,0.3,0.1,0.5,0.1c0,0,0.1,0.1,0.1,0.2c0,0.1,0,0.1-0.1,0.2c-0.1,0.1-0.2,0.1-0.3,0.1c-0.2,0-0.3,0.1-0.5,0.1
		c-1,0.2-1.8,0.6-2.6,1.3c-0.3,0.2-0.5,0.5-0.6,0.9c0,0.1,0,0.2-0.1,0.3c0,0.2,0.2,0.4,0.4,0.5c0.1,0,0.2,0,0.3,0
		c0.4,0,0.9-0.2,1.2-0.4c1.1-0.7,2.1-1.5,2.6-2.7c0.1-0.3,0.4-0.4,0.8-0.4c0.2,0,0.4,0.1,0.4,0.4c0,0.5,0.1,1,0.1,1.5
		c0,0.2,0,0.4,0,0.7c0,0.1,0.2,0.2,0.3,0.2c0.5-0.3,1.1-0.5,1.6-0.8c0.4-0.2,0.8-0.4,1.3-0.6c0.2-0.1,0.5-0.1,0.7,0.1
		c0,0,0,0,0.1,0.1c0.1,0.1,0.1,0.2,0,0.3c-0.1,0.1-0.3,0.2-0.4,0.3c-0.9,0.4-1.7,0.8-2.6,1.3c-0.3,0.1-0.6,0.3-0.9,0.5
		c-0.1,0.4-0.2,0.8-0.2,1.2c-0.3,1.7-1.1,3.1-2.3,4.3c-0.6,0.6-1.3,1-2.1,1.3c-0.2,0.1-0.4,0.1-0.5,0.3H172.3z M173.1,112.2
		c0.2,0,0.4-0.1,0.6-0.1c0.5-0.1,0.9-0.4,1.3-0.7c0.7-0.5,1.2-1.2,1.7-1.9c0.4-0.7,0.7-1.5,0.9-2.3c0-0.1,0-0.2,0-0.4
		c0-0.1-0.1-0.1-0.1-0.1c-0.1,0-0.2,0-0.3,0.1c-0.7,0.4-1.4,0.8-2.1,1.3c-0.6,0.4-1.1,0.8-1.6,1.3c-0.4,0.4-0.8,0.8-1,1.3
		c-0.1,0.3-0.2,0.5-0.3,0.8c0,0.2,0.2,0.5,0.4,0.6C172.8,112.2,172.9,112.2,173.1,112.2"/>
	<path d="M293.4,103.6c0.2-0.5,0.7-0.9,1.1-1.2c0.6-0.4,1.3-0.4,2-0.2c0.6,0.1,0.9,0.5,0.9,1.1c0,0.2,0,0.4,0,0.7
		c0,0.4,0.3,0.6,0.7,0.7c0.5,0.1,0.9,0,1.4-0.2c0.5-0.2,1-0.4,1.4-0.7c0.1-0.1,0.3-0.2,0.4-0.3c1-0.7,2.2-1.2,3.4-1.3
		c0.4-0.1,0.9-0.1,1.3-0.1c0.2,0,0.3,0,0.5,0.1c0.1,0,0.3,0.2,0.2,0.3c-0.1,0.1-0.1,0.2-0.2,0.2c-0.3,0.1-0.5,0.1-0.8,0.1
		c-0.5,0-1.1,0.1-1.6,0.3c-0.7,0.2-1.4,0.5-1.9,1c-0.3,0.3-0.6,0.5-0.7,0.9c-0.1,0.1-0.1,0.3-0.1,0.5c0,0.1,0.1,0.2,0.3,0.3
		c0.3,0.1,0.5,0,0.8-0.1c0.5-0.2,1-0.5,1.5-0.8c0.5-0.4,0.9-0.8,1.3-1.2c0.1-0.1,0.3-0.3,0.4-0.4c0.2-0.1,0.4-0.2,0.7-0.1
		c0.2,0.1,0.4,0.3,0.3,0.4c-0.2,0.3-0.3,0.7-0.4,1.1c0,0.1-0.1,0.2-0.1,0.4c-0.1,0.7,0.3,0.8,0.9,0.7c0.2,0,0.4-0.1,0.6-0.2
		c0.9-0.4,1.7-1,2.3-1.6c0.1-0.1,0.2-0.3,0.2-0.4c0.1-0.3,0.1-0.5,0.2-0.8c0.1-0.4,0.5-0.6,1-0.4c0.1,0.1,0.2,0.2,0.2,0.3
		c0,0.3-0.1,0.7-0.2,1c0,0,0,0.1,0,0.1c0,0,0.1,0,0.1,0c0.1-0.1,0.2-0.2,0.3-0.3c0.2-0.2,0.4-0.4,0.6-0.5c0.6-0.5,1.4-0.6,2.2-0.5
		c0.6,0.1,1,0.6,1,1.1c0,0.2,0,0.5,0,0.7c0,0.2,0.2,0.4,0.4,0.5c0.3,0.1,0.5,0.1,0.8,0.1c0.3,0,0.7-0.1,1-0.2c0.6-0.2,1.2-0.6,1.7-1
		c0.2-0.1,0.3-0.3,0.5-0.5c0.7-0.5,1.5-0.9,2.4-1c0.5-0.1,1,0,1.5,0.2c0.1,0,0.2,0.1,0.3,0.1c0.2,0.1,0.4,0.4,0.3,0.5
		c-0.1,0.2-0.3,0.3-0.5,0.4c-0.3,0-0.5,0-0.7-0.3c-0.1-0.3-0.3-0.3-0.6-0.3c-0.9,0.2-1.7,0.6-2.3,1.3c-0.1,0.1-0.2,0.3-0.2,0.4
		c-0.2,0.4,0,0.8,0.4,0.9c0.3,0.1,0.6,0.2,0.9,0.2c1,0.1,2,0,3-0.3c1.3-0.4,2.4-1,3.3-1.9c0.7-0.7,1.6-1.1,2.6-1.3
		c0.5-0.1,1.1-0.1,1.6,0.1c0.1,0.1,0.3,0.2,0.4,0.3c0.2,0.2,0.2,0.4,0.1,0.6c-0.1,0.2-0.4,0.4-0.6,0.5c-0.6,0.3-1.2,0.5-1.9,0.6
		c-0.5,0.1-1,0.1-1.5,0.2c-0.2,0-0.3,0.2-0.2,0.4c0.1,0.2,0.2,0.3,0.3,0.5c0.3,0.2,0.6,0.3,1,0.3c1.4,0.1,2.8-0.1,4-0.7
		c0.6-0.3,1.2-0.6,1.8-1.1c0.2-0.1,0.4-0.3,0.6-0.4c0.2-0.1,0.5-0.1,0.8,0c0.2,0.1,0.2,0.3,0.1,0.4c0,0-0.1,0.1-0.1,0.1
		c-1.2,1-2.6,1.7-4.2,2.1c-1.2,0.3-2.4,0.3-3.6,0.1c-0.8-0.1-1.2-0.3-1.8-1c-0.2,0-0.4,0.1-0.6,0.2c-0.7,0.3-1.5,0.6-2.3,0.8
		c-1.2,0.2-2.4,0.2-3.5,0.1c-0.2,0-0.5-0.1-0.7-0.2c-0.4-0.2-0.8-0.4-1-0.8c0-0.1-0.1-0.2-0.2-0.3c-0.2,0.1-0.4,0.1-0.6,0.2
		c-0.4,0.1-0.8,0.2-1.2,0.3c-0.7,0.1-1.3,0-2-0.3c-0.5-0.2-0.7-0.5-0.7-1c0-0.2,0-0.4,0-0.6c0-0.1,0-0.2,0-0.3
		c0-0.1-0.1-0.2-0.1-0.2c-0.1-0.1-0.3-0.2-0.4-0.1c-0.2,0.1-0.4,0.2-0.5,0.3c-0.3,0.2-0.5,0.5-0.8,0.7c-0.4,0.5-0.8,1-1.1,1.4
		c-0.2,0.2-0.3,0.4-0.4,0.6c-0.2,0.3-0.5,0.3-0.8,0.3c-0.2,0-0.4-0.2-0.4-0.4c0-0.2,0-0.3,0-0.5c0-0.1,0-0.2-0.1-0.3
		c-0.1,0.1-0.3,0.1-0.4,0.2c-0.4,0.2-0.8,0.4-1.1,0.6c-0.5,0.2-1,0.4-1.6,0.4c-0.2,0-0.3,0-0.5,0c-0.6-0.1-1.2-0.3-1.4-0.9
		c0,0-0.1-0.1-0.2-0.1c-0.2,0.1-0.5,0.3-0.8,0.4c-0.5,0.3-1,0.5-1.6,0.6c-0.4,0.1-0.8,0-1.2-0.1c-0.4-0.1-0.7-0.3-0.8-0.6
		c0-0.1-0.1-0.2-0.1-0.3c-0.1,0-0.2,0-0.2,0c-0.3,0-0.5,0.1-0.8,0.1c-0.6,0.1-1.1,0.1-1.7-0.1c-0.2-0.1-0.4-0.1-0.6-0.2
		c-0.3-0.2-0.6-0.5-0.6-0.8c0-0.2,0-0.4,0-0.7c0-0.2-0.1-0.3-0.1-0.4c-0.1-0.2-0.4-0.3-0.6-0.2c-0.2,0.1-0.5,0.3-0.6,0.5
		c-0.3,0.3-0.7,0.7-1,1.1c-0.4,0.5-0.7,1-1.1,1.5c-0.2,0.3-0.5,0.4-0.9,0.3c-0.1,0-0.2-0.1-0.3-0.1c0-0.2,0-0.4,0-0.6
		c0.1-0.9,0.3-1.9,0.5-2.8c0-0.1,0.1-0.2,0.1-0.3c0.1-0.3,0.4-0.5,0.8-0.4c0.2,0.1,0.4,0.2,0.3,0.4c0,0.2-0.1,0.5-0.1,0.7
		C293.2,103.3,293.3,103.4,293.4,103.6c0,0-0.1-0.1-0.1-0.1C293.3,103.5,293.4,103.5,293.4,103.6 M329.3,103.6
		C329.3,103.6,329.3,103.6,329.3,103.6c0.8,0,1.4-0.2,2-0.6c0.1,0,0.1-0.1,0.1-0.1c0.1-0.1,0-0.2-0.1-0.2c-0.1,0-0.1-0.1-0.2,0
		c-0.7,0-1.4,0.3-1.9,0.8c0,0,0,0.1,0,0.1C329.2,103.5,329.2,103.5,329.3,103.6C329.2,103.6,329.2,103.6,329.3,103.6"/>
	<path d="M143.4,104.2c-0.4-0.1-0.7,0-1,0c-0.4,0-0.7-0.1-1.1-0.2c-0.3-0.1-0.6-0.2-1-0.3c-0.1,0.1-0.1,0.2-0.1,0.3
		c-0.1,0.3-0.2,0.5-0.3,0.8c-0.4,0.8-1.1,1.3-2.1,1.3c-0.2,0-0.3,0-0.5,0c-0.8,0-1.4-0.3-1.8-0.9c-0.1-0.1-0.2-0.3-0.3-0.4
		c-0.2,0.2-0.4,0.3-0.5,0.5c-0.2,0.2-0.4,0.3-0.6,0.5c-0.4,0.3-0.9,0.3-1.4,0.2c-0.4-0.1-0.7-0.4-0.8-0.8c-0.1-0.3-0.1-0.6-0.2-0.8
		c0-0.1-0.1-0.2-0.3-0.2c-0.7,0-1.4,0-2,0c-0.1,0-0.1,0-0.2,0.1c-0.1,0.1-0.2,0.3-0.2,0.4c-0.3,0.8-1,1.3-1.9,1.6
		c-0.6,0.2-1.2,0.2-1.8,0c-0.4-0.1-0.8-0.3-1-0.5c-0.4-0.4-0.6-0.8-0.4-1.4c0.1-0.4,0.3-0.8,0.7-1.1c0.1-0.1,0.3-0.3,0.4-0.4
		c1.2-1.1,2.9-0.6,3.7,0.3c0.1,0.1,0.2,0.2,0.3,0.3c0.1,0.1,0.2,0.2,0.3,0.2c0.8,0.1,1.6,0.1,2.4-0.1c0.1,0,0.1-0.1,0.2-0.1
		c0.1-0.3,0.3-0.6,0.4-0.9c0.2-0.3,0.6-0.4,1-0.2c0.1,0.1,0.2,0.2,0.2,0.3c-0.2,0.5-0.4,1-0.5,1.5c0,0.4,0,0.7,0.1,1.1
		c0,0.1,0.2,0.2,0.3,0.1c0.2-0.2,0.5-0.4,0.6-0.6c0.3-0.3,0.6-0.7,0.8-1.1c0.1-0.2,0.2-0.3,0.3-0.5c0.2-0.2,0.5-0.3,0.8-0.2
		c0.1,0,0.3,0.2,0.3,0.3c0,0.2,0,0.5,0,0.7c0,0.3,0.1,0.7,0.2,1c0.3,0.7,1.1,0.9,1.7,0.4c0.2-0.2,0.3-0.4,0.5-0.6
		c0.2-0.3,0.2-0.7,0.3-1.1c0-0.1,0-0.2,0-0.4c0-0.2,0-0.5,0.3-0.6c0.3-0.1,0.7-0.1,1,0.1c0.2,0.1,0.4,0.3,0.6,0.5
		c0.5,0.3,1,0.5,1.5,0.5c0.4,0,0.9-0.1,1.3-0.2c0.3-0.1,0.6-0.2,0.8-0.4c0.7-0.5,1.4-0.8,2.3-1c0.5-0.1,1,0,1.5,0.1
		c0.1,0,0.2,0.1,0.3,0.2c0.3,0.2,0.3,0.6,0.1,0.8c-0.2,0.2-0.5,0.4-0.7,0.5c-0.5,0.2-1.1,0.4-1.6,0.5c-0.5,0.1-1,0.2-1.5,0.2
		c-0.2,0-0.3,0.2-0.3,0.4c0.1,0.2,0.2,0.3,0.4,0.4c0.3,0.1,0.5,0.2,0.9,0.3c1.2,0.1,2.4,0,3.5-0.4c0.9-0.3,1.8-0.8,2.5-1.4
		c0.2-0.1,0.3-0.3,0.3-0.5c0-0.3,0.1-0.6,0.1-0.9c0-0.2,0.2-0.3,0.4-0.3c0.1,0,0.3,0,0.4,0c0.2,0,0.3,0.2,0.3,0.3c0,0.3,0,0.6,0,0.8
		c0,0.1,0,0.1,0.1,0.2c0,0,0.1,0,0.1,0c0.2-0.1,0.4-0.2,0.6-0.3c0.6-0.4,1.3-0.7,2-0.9c0.6-0.2,1.1-0.2,1.7-0.2c0.1,0,0.2,0,0.3,0.1
		c0.1,0,0.3,0.2,0.2,0.3c0,0.1-0.1,0.2-0.3,0.2c-0.1,0-0.2,0-0.3,0c-0.8,0-1.5,0.2-2.2,0.6c-0.5,0.3-1,0.6-1.4,0.9
		c-0.6,0.5-1,1-1.2,1.7c-0.1,0.4-0.7,0.5-1,0.2c-0.1-0.1-0.1-0.2-0.1-0.2c0-0.2,0-0.4,0-0.6c0-0.2-0.1-0.3-0.3-0.2
		c-0.2,0.1-0.5,0.2-0.7,0.4c-1.8,0.8-3.6,1.1-5.5,0.8c-0.4-0.1-0.7-0.2-1.1-0.3c-0.5-0.2-0.8-0.6-0.8-1.2
		C143.4,104.4,143.4,104.3,143.4,104.2 M126,102.9c-0.1,0-0.1,0-0.1,0c-0.6,0.3-0.9,0.8-0.9,1.4c0,0.3,0.1,0.6,0.3,0.9
		c0.2,0.2,0.4,0.3,0.7,0.3c0.2,0,0.5,0,0.7-0.1c0.4-0.2,0.8-0.5,1-0.8c0.1-0.2,0.2-0.3,0.2-0.5c0-0.1,0-0.2-0.1-0.2
		c-0.1-0.1-0.2-0.1-0.3-0.1C126.9,103.5,126.4,103.3,126,102.9 M145.5,103.6c0.7,0,1.5-0.3,2-0.7c0,0,0.1,0,0.1-0.1
		c0-0.1,0-0.1,0-0.2c0,0-0.1-0.1-0.1-0.1c0,0-0.1,0-0.1,0c-0.8,0-1.4,0.3-1.9,0.8C145.4,103.5,145.4,103.5,145.5,103.6
		C145.4,103.6,145.5,103.6,145.5,103.6"/>
	<path d="M276.5,104c-0.2,0-0.3,0-0.4,0c-0.7,0-1.4,0-2.1-0.2c-0.1,0-0.3,0.1-0.3,0.2c-0.2,0.3-0.4,0.7-0.6,1
		c-0.1,0.2-0.2,0.3-0.3,0.5c-0.3,0.4-0.6,0.6-1.1,0.6c-1,0.1-1.7-0.2-2.1-0.9c-0.1-0.2-0.2-0.3-0.3-0.5c-0.1-0.2-0.2-0.4-0.2-0.6
		c-0.1,0-0.1-0.1-0.1-0.1c-0.8,0-1.7,0-2.6,0c-0.1,0.2-0.2,0.4-0.2,0.5c-0.4,0.8-1.1,1.3-1.9,1.5c-0.6,0.2-1.1,0.2-1.7,0
		c-0.2-0.1-0.4-0.1-0.6-0.2c-1-0.5-1.2-1.3-0.8-2.1c0.2-0.4,0.4-0.7,0.7-0.9c0.1-0.1,0.3-0.2,0.4-0.3c0.5-0.3,0.9-0.6,1.5-0.5
		c0.8,0.1,1.5,0.3,2,0.8c0.1,0.1,0.2,0.2,0.3,0.4c0.1,0.1,0.3,0.2,0.4,0.2c0.7,0.1,1.4,0.1,2.1,0c0.3,0,0.4-0.1,0.4-0.4
		c0-0.2,0-0.4,0.1-0.6c0.1-0.4,0.7-0.5,1-0.3c0.1,0.1,0.1,0.2,0.1,0.2c0,0.3,0,0.6,0,0.8c0,0.6,0.2,1.2,0.5,1.7
		c0.1,0.1,0.1,0.2,0.2,0.3c0.3,0.4,0.6,0.4,0.9,0c0.4-0.5,0.6-1,0.8-1.5c0.1-0.2,0.2-0.5,0.3-0.7c0.1-0.3,0.4-0.4,0.7-0.4
		c0.2,0,0.4,0.1,0.5,0.3c0.1,0.2,0.2,0.3,0.4,0.3c0.7,0.2,1.4,0.2,2.1,0c0.4-0.1,0.8-0.2,1.1-0.4c0.6-0.5,1.3-0.7,2.1-0.9
		c0.5-0.1,1.1-0.1,1.6,0.1c0.2,0.1,0.3,0.2,0.4,0.3c0.2,0.2,0.2,0.5,0,0.7c-0.2,0.2-0.4,0.4-0.7,0.5c-0.5,0.3-1.1,0.4-1.7,0.6
		c-0.5,0.1-1,0.2-1.5,0.2c-0.2,0-0.3,0.2-0.2,0.3c0,0.2,0.1,0.3,0.3,0.5c0.3,0.2,0.6,0.3,0.9,0.3c1.3,0.1,2.6,0,3.8-0.5
		c0.8-0.3,1.5-0.7,2.1-1.2c0.2-0.1,0.3-0.3,0.3-0.6c0-0.3,0-0.6,0.1-0.8c0-0.2,0.2-0.4,0.5-0.4c0.1,0,0.3,0,0.4,0
		c0.1,0,0.3,0.2,0.3,0.3c0,0.1,0,0.2,0,0.3c0,0.3-0.1,0.5,0.1,0.8c0.3,0,0.5-0.3,0.8-0.4c0.6-0.3,1.2-0.6,1.9-0.8
		c0.6-0.2,1.2-0.2,1.8-0.1c0.1,0,0.2,0.1,0.3,0.1c0.1,0,0.1,0.2,0,0.3c-0.1,0.1-0.2,0.1-0.3,0.1c-0.1,0-0.3,0-0.4,0
		c-0.6,0-1.1,0.1-1.6,0.3c-0.7,0.3-1.3,0.7-1.9,1.1c-0.6,0.5-1,1.1-1.2,1.8c-0.1,0.4-0.7,0.4-1,0.2c-0.1-0.1-0.1-0.2-0.1-0.2
		c0-0.2,0-0.4,0-0.6c0-0.1-0.1-0.2-0.3-0.2c-0.2,0.1-0.4,0.2-0.5,0.3c-1.3,0.6-2.6,1-4.1,1c-0.6,0-1.3,0-1.9-0.2
		c-0.3-0.1-0.6-0.2-0.9-0.3c-0.6-0.3-0.9-0.7-0.8-1.3C276.5,104.3,276.5,104.2,276.5,104 M263.1,102.9c-0.4,0.1-0.6,0.4-0.7,0.6
		c-0.2,0.3-0.3,0.6-0.3,1c0.1,0.7,0.6,1.1,1.4,1c0.1,0,0.3-0.1,0.4-0.1c0.3-0.2,0.6-0.4,0.8-0.7c0.1-0.2,0.2-0.4,0.3-0.6
		c0-0.2,0-0.3-0.2-0.4C264.2,103.6,263.6,103.3,263.1,102.9 M280.6,102.8C280.6,102.7,280.6,102.7,280.6,102.8
		c-0.1-0.1-0.2-0.2-0.3-0.2c-0.7,0-1.3,0.3-1.9,0.8c0,0,0,0.1,0,0.1c0,0,0,0.1,0,0.1c0,0,0,0,0.1,0c0.8,0,1.5-0.2,2.1-0.7
		C280.6,102.9,280.6,102.9,280.6,102.8C280.6,102.8,280.6,102.8,280.6,102.8"/>
	<path d="M109.5,103.5c-0.1,0-0.2,0-0.3,0.1c-0.4,0.3-0.6,0.7-0.9,1.2c-0.1,0.2-0.3,0.5-0.4,0.8c-0.2,0.3-0.7,0.3-1,0.1
		c-0.1-0.1-0.1-0.1-0.2-0.2c0-0.4,0-0.7-0.1-1.1c0-0.4-0.1-0.9-0.1-1.3c0-0.2-0.2-0.3-0.4-0.1c-0.1,0.1-0.2,0.1-0.2,0.2
		c-0.1,0.1-0.2,0.2-0.4,0.3c-0.6,0.6-1.2,1.3-1.7,2.1c-0.1,0.1-0.1,0.2-0.2,0.3c-0.1,0.2-0.2,0.3-0.4,0.4c-0.3,0.1-0.6,0-0.8-0.2
		c-0.1-0.1-0.1-0.3-0.1-0.4c0-1,0-1.9,0-2.9c0-0.1,0-0.2,0-0.4c0-0.1,0.1-0.2,0.3-0.3c0.2,0,0.3,0,0.5,0c0.2,0,0.3,0.2,0.3,0.3
		c0,0.2,0,0.3,0,0.5c0,0.3,0,0.6,0,0.8c0,0,0,0.1,0,0.1c0.1,0,0.2,0,0.2,0c0.2-0.2,0.4-0.4,0.6-0.5c0.3-0.3,0.6-0.5,0.9-0.8
		c0.5-0.4,1.1-0.5,1.8-0.3c0.3,0.1,0.5,0.3,0.6,0.6c0.1,0.2,0.1,0.4,0.1,0.5c0,0,0.1,0.1,0.2,0c0.2-0.1,0.4-0.3,0.6-0.4
		c0.3-0.2,0.5-0.2,0.9-0.3c0.5,0,0.9,0.2,1.2,0.6c0.1,0.2,0.2,0.4,0.3,0.6c0.1,0.1,0.2,0.3,0.3,0.4c0.2,0.2,0.4,0.3,0.7,0.3
		c0.3,0,0.7,0,1-0.1c0.3-0.1,0.6-0.2,0.8-0.3c0.3-0.1,0.6-0.3,0.9-0.5c1-0.7,0.9-0.3,1-1.5c0-0.1,0-0.1,0-0.2
		c0.1-0.4,0.2-0.6,0.8-0.5c0.3,0,0.4,0.2,0.4,0.4c0,0.2,0,0.4,0,0.6c0,0.1,0.1,0.2,0.2,0.1c0.3-0.1,0.7-0.2,1-0.2
		c0.8-0.2,1.5-0.3,2.3-0.3c0.4,0,0.7,0.1,1.1,0.2c0.1,0,0.2,0.1,0.3,0.1c0.5,0.2,0.7,0.7,0.5,1.2c-0.1,0.3-0.2,0.5-0.5,0.7
		c-0.2,0.2-0.5,0.5-0.7,0.6c-1,0.7-2.2,1.2-3.4,1.3c-0.3,0-0.5,0.1-0.8,0.1c-0.1,0-0.2,0.1-0.3,0.2c0,0.2-0.1,0.5-0.1,0.7
		c0,0.6,0,1.1,0,1.7c0,1.1,0,2.2,0,3.3c0,0.3-0.2,0.4-0.5,0.5c-0.4,0-0.6-0.2-0.6-0.5c0-0.3,0-0.6,0-0.8c0-1.4,0-2.7,0.1-4.1
		c0.1-0.9,0.1-1.8,0.1-2.7c0-0.1-0.2-0.2-0.3-0.2c-0.2,0.1-0.4,0.2-0.6,0.3c-0.3,0.1-0.6,0.3-0.9,0.4c-0.7,0.2-1.4,0.3-2.1,0.2
		c-0.7-0.1-1.2-0.4-1.5-1C109.7,103.9,109.6,103.7,109.5,103.5 M116.5,104.5c0,0.3,0,0.5,0,0.7c0,0.1,0.1,0.2,0.3,0.2
		c0.3,0,0.7,0,1-0.1c0.9-0.2,1.6-0.6,2.3-1.1c0.3-0.2,0.5-0.4,0.7-0.7c0.1-0.1,0.2-0.3,0.2-0.5c0-0.2-0.1-0.4-0.3-0.5
		c-0.3-0.1-0.6-0.1-0.9-0.1c-1,0.1-2,0.3-2.9,0.7c-0.2,0.1-0.3,0.2-0.4,0.4C116.6,103.9,116.6,104.2,116.5,104.5"/>
	<path d="M190.2,106.3c0-0.2-0.1-0.4-0.1-0.6c-0.1-1.9,0.1-3.9,0.6-5.8c0.1-0.3,0.2-0.6,0.2-0.9c0-0.1-0.1-0.3-0.2-0.2
		c-0.6,0.1-1.2,0.3-1.7,0.6c-0.1,0.1-0.3,0.2-0.4,0.3c-0.2,0.1-0.4,0.1-0.7,0.1c-0.1,0-0.3-0.2-0.3-0.2c0-0.1,0.1-0.2,0.1-0.2
		c0.3-0.3,0.7-0.4,1-0.6c0.6-0.2,1.1-0.4,1.7-0.5c0.2,0,0.3-0.1,0.5-0.1c0.2,0,0.3-0.1,0.4-0.3c0-0.1,0-0.1,0.1-0.2
		c0.2-0.3,0.4-0.4,0.7-0.4c0.2,0,0.3,0.1,0.4,0.3c0.1,0.3,0.3,0.3,0.5,0.3c0.4,0,0.8,0,1.2,0c1,0,2,0.1,2.9,0.4
		c0.9,0.2,1.8,0.6,2.5,1.1c0.6,0.5,1.1,1,1.4,1.7c0.3,0.8,0.2,1.5-0.1,2.3c-0.3,0.6-0.6,1-1.1,1.5c-0.5,0.5-1.1,0.9-1.8,1.3
		c-1.1,0.6-2.2,1-3.4,1.4c-1.5,0.4-3,0.7-4.6,0.8c-1,0-2,0-2.9-0.3c-0.2-0.1-0.4-0.1-0.6-0.2c-0.1,0-0.1-0.2,0-0.3
		c0.1-0.1,0.3-0.2,0.5-0.1c0.1,0,0.3,0,0.4,0.1c1.2,0.3,2.3,0.3,3.5,0.2c1.7-0.2,3.4-0.6,5-1.3c0.8-0.4,1.6-0.8,2.3-1.3
		c0.4-0.3,0.7-0.6,1-1c0.3-0.3,0.4-0.7,0.6-1.1c0.3-0.8,0.1-1.6-0.4-2.3c-0.3-0.5-0.8-0.8-1.3-1.1c-0.7-0.4-1.4-0.6-2.2-0.7
		c-1.1-0.2-2.2-0.2-3.3-0.1c-0.1,0-0.1,0-0.2,0c-0.1,0-0.2,0.1-0.2,0.2c-0.1,0.3-0.2,0.5-0.3,0.8c-0.5,1.6-0.7,3.2-0.8,4.9
		c0,0.6,0,1.1,0,1.7c0,0.2-0.1,0.3-0.4,0.4c-0.2,0-0.3,0-0.5,0C190.4,106.5,190.3,106.4,190.2,106.3"/>
	<path d="M235.8,104.7c-0.2,0.1-0.4,0.3-0.7,0.4c-0.5,0.3-1,0.6-1.6,0.8c-0.4,0.1-0.8,0.2-1.2,0.2c-0.4,0-0.7,0-1.1-0.2
		c-0.3-0.1-0.5-0.4-0.7-0.7c-0.1-0.2-0.2-0.2-0.4-0.1c-0.1,0.1-0.3,0.2-0.4,0.3c-0.6,0.3-1.1,0.5-1.8,0.6c-0.5,0.1-0.9,0-1.3-0.1
		c-0.7-0.2-0.8-0.7-0.7-1.2c0.1-0.3,0.3-0.6,0.5-0.9c0.3-0.3,0.6-0.6,1-0.8c0.8-0.5,1.7-0.8,2.7-1c0.6-0.1,1.1-0.2,1.7-0.2
		c0.2,0,0.3,0.1,0.5,0.2c0.1,0.1,0.1,0.3,0,0.3c-0.1,0-0.2,0.1-0.4,0.1c-0.3,0-0.7,0-1,0.1c-1,0.1-1.8,0.4-2.6,0.9
		c-0.4,0.3-0.8,0.6-1,1c-0.1,0.2-0.2,0.4-0.2,0.6c0,0.1,0.1,0.2,0.3,0.3c0.2,0.1,0.5,0,0.7,0c0.4-0.2,0.9-0.4,1.2-0.6
		c0.5-0.4,1-0.8,1.5-1.3c0.2-0.2,0.4-0.4,0.6-0.5c0.2-0.2,0.5-0.2,0.8-0.1c0.2,0.1,0.3,0.2,0.2,0.4c-0.2,0.3-0.3,0.7-0.4,1
		c-0.1,0.2-0.1,0.5-0.1,0.7c0,0.2,0.2,0.4,0.5,0.4c0.2,0,0.4,0,0.6-0.1c0.3-0.1,0.6-0.2,0.8-0.4c0.7-0.4,1.3-0.8,1.8-1.3
		c0.2-0.2,0.3-0.3,0.3-0.6c0.1-1.1,0.4-2.1,0.8-3.2c0.2-0.7,0.5-1.3,0.7-2c0-0.1,0.1-0.2,0.1-0.3c0.2-0.3,0.5-0.5,0.9-0.3
		c0.1,0,0.2,0.2,0.2,0.3c0,0.2-0.1,0.4-0.2,0.5c-0.4,1-0.7,2-1,3c-0.2,0.7-0.3,1.5-0.4,2.2c-0.1,0.4,0,0.9,0.1,1.3
		c0.2,0.6,0.7,0.9,1.4,0.8c0.2,0,0.5-0.1,0.7-0.2c0.5-0.2,1.1-0.6,1.5-0.9c0.4-0.3,0.8-0.6,1.2-0.9c0.2-0.2,0.5-0.2,0.8-0.1
		c0.1,0,0.2,0.1,0.2,0.2c0,0,0,0.1,0,0.2c0,0.1-0.1,0.2-0.2,0.2c-0.7,0.7-1.5,1.3-2.4,1.7c-0.5,0.3-1,0.5-1.6,0.5
		c-0.4,0.1-0.8,0-1.2,0c-0.6-0.1-1-0.4-1.3-0.8C236.1,105.1,236.1,104.8,235.8,104.7"/>
	<path d="M257.2,107c-0.2,0.1-0.4,0.2-0.6,0.3c-1.3,0.6-2.7,0.9-4.1,0.9c-0.8,0-1.6-0.1-2.4-0.3c-0.5-0.1-1-0.4-1.4-0.7
		c-0.8-0.5-1.2-1.3-1.2-2.2c0-0.9,0.2-1.7,0.6-2.4c0.4-0.7,0.9-1.3,1.5-1.9c1.9-1.8,4.3-2.9,7-3.4c0.5-0.1,1.1-0.1,1.6,0
		c0.2,0,0.5,0.1,0.7,0.2c0.5,0.2,0.8,0.7,0.7,1.2c0,0.2-0.1,0.5-0.2,0.7c-0.3,0.6-0.8,1.2-1.3,1.6c-0.3,0.2-0.6,0.3-1,0.2
		c-0.2,0-0.2-0.3-0.1-0.4c0.2-0.2,0.4-0.4,0.6-0.5c0.4-0.4,0.7-0.9,0.9-1.5c0-0.1,0-0.2,0-0.4c0-0.2-0.1-0.3-0.2-0.4
		c-0.2-0.1-0.4-0.2-0.7-0.2c-0.6,0-1.1,0.1-1.6,0.3c-1.9,0.6-3.6,1.5-5.1,2.8c-0.5,0.4-0.9,0.9-1.2,1.5c-0.5,0.7-0.7,1.5-0.8,2.3
		c0,0.2,0,0.4,0,0.7c0.1,0.7,0.5,1.3,1.1,1.7c0.5,0.3,1,0.5,1.6,0.5c1.3,0.1,2.5,0,3.7-0.4c0.3-0.1,0.5-0.2,0.7-0.3
		c1-0.5,1.7-1.3,2-2.3c0.1-0.2,0.1-0.4,0.2-0.6c0.1-0.3,0.5-0.5,0.9-0.4c0.1,0,0.1,0,0.2,0.1c0.1,0.1,0.1,0.1,0.1,0.2
		c0,0.1,0,0.2-0.1,0.4c-0.2,0.8-0.4,1.5-0.6,2.3c-0.1,0.5-0.1,1,0,1.5c0.1,0.2-0.1,0.4-0.3,0.4c-0.1,0-0.3,0-0.4,0
		c-0.2,0-0.4-0.1-0.4-0.4c-0.1-0.2-0.1-0.5-0.2-0.7C257.3,107.2,257.3,107.2,257.2,107"/>
	<path d="M92.8,98.4c-0.2,0-0.4,0-0.6,0c-0.5,0-0.9,0.1-1.4,0.1c-0.2,0-0.3,0-0.5-0.1c-0.1,0-0.3-0.2-0.2-0.3c0-0.1,0.1-0.2,0.2-0.2
		c0.2-0.1,0.4-0.1,0.6-0.1c0.4,0,0.7,0,1.1-0.1c0.4,0,0.7,0,1.1-0.1c0.1-0.1,0.2-0.2,0.3-0.3c0.3-0.3,0.7-0.3,1-0.1
		c0.2,0.2,0.4,0.3,0.7,0.2c0.8,0,1.6-0.1,2.4-0.1c1.3,0,2.5-0.1,3.8-0.1c0.1,0,0.3,0,0.4,0c0.1,0,0.1,0,0.2,0.1
		c0.1,0.1,0.2,0.1,0.2,0.2c0,0.1-0.1,0.2-0.2,0.2c-0.1,0.1-0.3,0.1-0.4,0.1c-1.6,0.1-3.2,0.1-4.9,0.2c-0.7,0-1.4,0.1-2,0.1
		c-0.3,0-0.4,0.1-0.5,0.4c-0.3,0.7-0.6,1.4-0.8,2.1c0,0.1,0.1,0.3,0.2,0.3c0.2,0,0.3,0,0.5,0c1.3,0,2.6-0.1,4-0.1
		c0.3,0,0.5,0,0.8,0.1c0.1,0.1,0.1,0.2,0,0.3c-0.1,0-0.1,0.1-0.2,0.1c-0.1,0-0.2,0.1-0.3,0.1c-0.2,0-0.5,0-0.7,0
		c-1.4,0.1-2.8,0.1-4.2,0.2c-0.2,0-0.3,0-0.5,0c-0.1,0.1-0.1,0.1-0.1,0.1c-0.4,0.9-0.8,1.7-1.1,2.6c-0.2,0.4-0.3,0.8-0.3,1.3
		c0,0.6,0.3,1,0.8,1.3c0.3,0.1,0.6,0.2,0.9,0.3c0.5,0.1,1.1,0.2,1.6,0.2c3,0.1,5.9-0.2,8.8-0.8c0.2-0.1,0.5-0.1,0.7-0.1
		c0.1,0,0.3,0,0.4,0c0.1,0,0.2,0.1,0.2,0.2c0,0.1-0.1,0.2-0.1,0.2c-0.1,0.1-0.2,0.1-0.4,0.1c-1.2,0.3-2.5,0.5-3.8,0.7
		c-1.2,0.2-2.5,0.2-3.7,0.3c-1,0-2,0-2.9-0.1c-0.7,0-1.3-0.2-2-0.4c-1.3-0.4-1.8-1.3-1.5-2.5c0.1-0.6,0.4-1.2,0.6-1.8
		c0.2-0.4,0.4-0.9,0.6-1.3c0.1-0.1,0-0.2-0.2-0.3c-0.1,0-0.3-0.1-0.4-0.1c-0.1,0-0.1-0.3,0-0.3c0.1,0,0.2-0.1,0.3-0.1
		c0.2,0,0.3,0,0.5-0.1c0.1,0,0.2-0.1,0.2-0.2c0.3-0.8,0.6-1.6,1-2.4C92.8,98.6,92.8,98.5,92.8,98.4"/>
	<path d="M205.8,100.4C205.8,100.4,205.8,100.4,205.8,100.4c-0.1,0.3-0.2,0.4-0.3,0.6c-0.2,0.2-0.6,0.3-0.9,0.1
		c-0.1-0.1-0.2-0.2-0.1-0.3c0-0.1,0.1-0.2,0.2-0.3c0.2-0.3,0.7-0.4,1-0.2C205.7,100.3,205.8,100.3,205.8,100.4"/>
	<path d="M161.8,100.4c-0.1,0.5-0.5,0.9-1,0.7c-0.2-0.1-0.3-0.3-0.3-0.4c0.1-0.1,0.1-0.2,0.2-0.3c0.2-0.3,0.7-0.4,1-0.1
		C161.8,100.3,161.8,100.4,161.8,100.4"/>
	<path d="M219.5,100.4c0,0.1,0,0.1,0,0.2c0,0.1-0.1,0.2-0.2,0.3c-0.2,0.3-0.6,0.3-0.9,0.2c-0.1,0-0.2-0.2-0.2-0.3
		c0.1-0.1,0.1-0.3,0.2-0.4c0.2-0.3,0.6-0.4,1-0.1C219.4,100.3,219.4,100.3,219.5,100.4"/>
	<path d="M343.8,106c-0.2-0.1-0.4-0.1-0.6-0.2c-0.1,0-0.1-0.1-0.2-0.2c0-0.1,0.1-0.3,0.2-0.3c0.3-0.1,0.6-0.1,1,0
		c0.1,0,0.2,0.2,0.2,0.3c0,0.1-0.1,0.2-0.1,0.2C344.1,105.9,343.9,105.9,343.8,106"/>
	<path d="M346.9,106c-0.2-0.1-0.4-0.1-0.6-0.2c-0.1,0-0.1-0.2-0.1-0.2c0-0.1,0.1-0.2,0.1-0.2c0.3-0.2,0.7-0.2,1.1,0
		c0.1,0,0.1,0.1,0.1,0.2c0,0.1,0,0.2-0.1,0.2C347.3,105.9,347.1,105.9,346.9,106"/>
	<path d="M350.2,105.2c0.2,0,0.4,0.1,0.6,0.1c0.1,0,0.1,0.1,0.1,0.2c0,0.1,0,0.2-0.1,0.2c-0.4,0.2-0.8,0.2-1.1,0
		c-0.1,0-0.1-0.2-0.1-0.2c0-0.1,0.1-0.2,0.2-0.2C349.8,105.3,350,105.3,350.2,105.2"/>
	<path d="M337.2,106c-0.2-0.1-0.4-0.1-0.6-0.2c-0.1,0-0.1-0.2-0.1-0.2c0-0.1,0.1-0.2,0.1-0.2c0.3-0.2,0.7-0.2,1.1,0
		c0.1,0,0.1,0.1,0.2,0.2c0,0.1,0,0.2-0.1,0.2C337.6,105.9,337.4,105.9,337.2,106"/>
	<path d="M340.4,106c-0.2-0.1-0.4-0.1-0.5-0.2c-0.1-0.1-0.1-0.3,0-0.4c0.1,0,0.1-0.1,0.2-0.1c0.3-0.1,0.6-0.1,0.9,0
		c0.1,0,0.2,0.2,0.2,0.3c0,0.1-0.1,0.2-0.2,0.3C340.8,105.9,340.6,106,340.4,106"/>
</g>
<g>
	<path class="st0" d="M352.1,77.4c-0.4-0.1-0.7-0.1-1.1-0.1c-5.1,0-10.1,0-15.2,0c-0.3,0-0.6,0-0.9,0c-0.2,0-0.3-0.2-0.3-0.4
		c0-0.2,0-0.4,0-0.6c0-4.7,0-9.3,0-14c0-0.2,0-0.5,0-0.7c0-0.1,0.2-0.3,0.3-0.3c0.1,0,0.2,0,0.2,0c0.2,0,0.5,0,0.7,0
		c5.1,0,10.2,0,15.3,0c0.3,0,0.6,0,0.9-0.1v2.2c-0.3-0.1-0.6-0.1-0.9-0.1c-3.8,0-7.7,0-11.5,0c-0.2,0-0.4,0-0.6,0
		c-0.4,0-0.5,0.2-0.5,0.5c0,0,0,0.1,0,0.1c0,1.2,0,2.4,0,3.7c0,0.1,0,0.2,0,0.3c0,0.1,0.1,0.2,0.2,0.2c0.1,0,0.3,0.1,0.4,0.1
		c0.3,0,0.5,0,0.8,0c2.9,0,5.8,0,8.8,0c0.7,0,1.4,0,2.1,0c0.2,0,0.4,0,0.5,0c0.2,0,0.3,0.2,0.3,0.3c0,0.5,0,0.9,0,1.4
		c0,0.2-0.2,0.3-0.4,0.3c-0.2,0-0.5,0-0.7,0c-3.6,0-7.2,0-10.9,0c-0.3,0-0.5,0-0.8,0c-0.2,0-0.4,0.1-0.4,0.4c0,0.1,0,0.1,0,0.2
		c0,1.2,0,2.4,0,3.7c0,0.1,0,0.2,0,0.3c0,0.1,0.2,0.2,0.3,0.3c0.2,0,0.5,0,0.7,0c3.9,0,7.8,0,11.7,0c0.2,0,0.3,0,0.5,0
		c0.1,0,0.2,0,0.3-0.1V77.4z"/>
	<path class="st0" d="M144.3,69.4c0,2.3,0,4.5,0,6.8c0,0.3,0,0.5,0,0.8c0,0.3-0.2,0.4-0.5,0.4c0,0-0.1,0-0.1,0c-0.7,0-1.5,0-2.2,0
		c-0.2,0-0.5-0.1-0.6-0.2c-0.8-0.6-1.6-1.3-2.4-1.9c-1.9-1.5-3.8-3.1-5.6-4.6c-1.6-1.3-3.1-2.6-4.7-3.9c-0.2-0.2-0.4-0.3-0.6-0.5
		c-0.1,0-0.1-0.1-0.2-0.1c-0.1,0-0.2,0-0.3,0.1c0,0.1,0,0.2,0,0.3c0,0.2,0,0.5,0,0.7c0,3,0,5.9,0,8.9c0,0.2,0,0.5,0,0.7
		c0,0.3-0.2,0.4-0.5,0.4c-0.1,0-0.2,0-0.2,0c-0.9,0-1.7,0-2.6,0c-0.1,0-0.2,0-0.2,0c-0.3,0-0.4-0.1-0.4-0.4c0-0.2,0-0.5,0-0.7
		c0-3.1,0-6.1,0-9.2c0-1.5,0-3.1,0-4.6c0-0.2,0-0.4,0-0.6c0-0.3,0.1-0.4,0.4-0.4c0.8,0,1.5,0,2.3,0c0.2,0,0.5,0.1,0.6,0.2
		c0.5,0.4,1,0.8,1.5,1.2c1.5,1.2,3.1,2.5,4.6,3.7c2.2,1.8,4.3,3.5,6.5,5.3c0.3,0.2,0.5,0.4,0.8,0.6c0.1,0.1,0.2,0.1,0.3,0.1
		c0.1,0,0.2,0,0.3-0.1c0-0.1,0-0.2,0-0.2c0-0.3,0-0.5,0-0.8c0-3,0-6,0-9.1c0-0.2,0-0.5,0-0.7c0-0.2,0.2-0.4,0.4-0.4
		c0.7,0,1.4,0,2.1,0c0.3,0,0.6,0,0.9,0c0.2,0,0.3,0.1,0.3,0.3c0,0.2,0,0.5,0,0.7c0,1.6,0,3.2,0,4.8V69.4z"/>
	<path class="st0" d="M113.7,69.4c0,2.3,0,4.6,0,7c0,0.2,0,0.5,0,0.7c0,0.2-0.1,0.3-0.3,0.3c-0.1,0-0.1,0-0.2,0c-0.8,0-1.6,0-2.3,0
		c-0.2,0-0.4-0.1-0.6-0.2c-0.3-0.3-0.7-0.5-1-0.8c-1.6-1.3-3.3-2.7-4.9-4c-2.1-1.7-4.2-3.4-6.2-5.1c-0.3-0.3-0.7-0.6-1-0.8
		c-0.1-0.1-0.3-0.2-0.4-0.2c-0.1,0-0.2,0-0.2,0.1c-0.1,0.1-0.1,0.2-0.1,0.3c0,0.3,0,0.5,0,0.8c0,3,0,5.9,0,8.9c0,0.3,0,0.5,0,0.8
		c0,0.2-0.1,0.3-0.3,0.3c-0.1,0-0.2,0-0.3,0c-0.9,0-1.7,0-2.6,0c-0.1,0-0.2,0-0.3,0c-0.1,0-0.3-0.2-0.3-0.3c0-0.1,0-0.2,0-0.2
		c0-0.2,0-0.4,0-0.6c0-4.6,0-9.2,0-13.8c0-0.3,0-0.5,0-0.8c0-0.1,0.2-0.3,0.3-0.3c0.1,0,0.2,0,0.2,0c0.7,0,1.4,0,2,0
		c0.2,0,0.5,0.1,0.7,0.2c0.4,0.3,0.8,0.6,1.2,0.9c2.8,2.2,5.5,4.5,8.3,6.7c1.2,1,2.4,2,3.6,3c0.2,0.1,0.4,0.3,0.6,0.4
		c0.1,0.1,0.3,0,0.4-0.2c0-0.1,0-0.2,0-0.3c0-0.2,0-0.5,0-0.7c0-3,0-5.9,0-8.9c0-0.3,0-0.5,0-0.8c0-0.2,0.2-0.4,0.4-0.4
		c0.1,0,0.2,0,0.2,0c0.8,0,1.7,0,2.5,0c0.1,0,0.3,0,0.4,0c0.1,0,0.2,0.1,0.2,0.2c0,0.1,0,0.2,0,0.2c0,0.2,0,0.5,0,0.7
		C113.7,64.9,113.7,67.1,113.7,69.4"/>
	<path class="st0" d="M167.5,77.6c-0.8,0-1.6,0-2.4-0.1c-0.1,0-0.1,0-0.2,0c-1.9-0.2-3.7-0.6-5.5-1.2c-1.4-0.5-2.8-1.3-4-2.2
		c-0.7-0.6-1.3-1.2-1.8-2c-0.6-1-0.9-2.1-0.8-3.3c0-0.3,0.1-0.7,0.2-1c0.3-0.8,0.7-1.5,1.3-2.1c0.9-0.9,1.9-1.7,3-2.3
		c1.5-0.8,3.2-1.3,4.8-1.7c1-0.2,2.1-0.3,3.2-0.5c0.5-0.1,1.1,0,1.6,0c0.7,0,1.4,0,2.1,0c0.6,0,1.1,0.1,1.7,0.2
		c1.6,0.2,3.2,0.6,4.8,1.2c1.3,0.5,2.5,1.1,3.6,2c0.8,0.6,1.4,1.3,2,2.1c0.4,0.6,0.6,1.3,0.7,2c0.2,0.9,0,1.8-0.4,2.7
		c-0.2,0.5-0.5,1-0.9,1.4c-0.9,1.1-2,1.9-3.2,2.5c-1.5,0.8-3.1,1.4-4.8,1.7c-0.8,0.2-1.7,0.3-2.5,0.4c-0.1,0-0.2,0-0.2,0
		C169.2,77.5,168.3,77.6,167.5,77.6 M167.5,63.3C167.5,63.3,167.5,63.3,167.5,63.3c-0.5,0-1.1,0-1.6,0c-0.6,0.1-1.2,0.2-1.8,0.3
		c-1.3,0.3-2.6,0.7-3.7,1.3c-0.8,0.4-1.6,1-2.2,1.7c-0.4,0.4-0.7,0.9-0.9,1.4c-0.1,0.3-0.2,0.6-0.3,0.9c-0.1,0.9,0.1,1.7,0.5,2.5
		c0.4,0.7,1,1.3,1.7,1.8c1,0.7,2.2,1.3,3.4,1.6c1.5,0.5,3.1,0.6,4.7,0.7c0.3,0,0.6,0,0.9,0c0.1,0,0.3,0,0.4,0c0.9,0,1.7-0.2,2.6-0.3
		c1.4-0.3,2.8-0.8,4-1.5c0.7-0.4,1.4-0.9,1.9-1.6c0.6-0.6,0.9-1.4,1.1-2.2c0-0.3,0.1-0.5,0-0.8c-0.1-0.8-0.4-1.5-0.9-2.1
		c-0.3-0.3-0.5-0.6-0.9-0.9c-0.6-0.5-1.3-1-2.1-1.4c-1.1-0.5-2.3-0.9-3.6-1.1c-0.4-0.1-0.8-0.1-1.2-0.2c-0.5-0.1-0.9-0.1-1.4-0.1
		C168,63.3,167.8,63.3,167.5,63.3"/>
	<path class="st0" d="M243.8,77.4c-0.5,0-1.1,0-1.6,0c-0.3,0-0.4-0.1-0.6-0.3c-0.3-0.5-0.7-0.9-1-1.4c-0.6-0.8-1.2-1.6-1.8-2.5
		c-0.1-0.1-0.2-0.2-0.3-0.4c-0.1-0.1-0.2-0.2-0.4-0.2c-0.1,0-0.3,0-0.4,0c-0.2,0-0.4,0-0.5,0c-2.7,0-5.5,0-8.2,0c-0.3,0-0.6,0-0.9,0
		c-0.2,0-0.4,0.1-0.5,0.3c-0.2,0.3-0.4,0.5-0.6,0.8c-0.8,1.1-1.5,2.1-2.3,3.2c-0.4,0.5-0.5,0.5-1,0.6c-1,0-2,0-3,0
		c-0.1,0-0.2,0-0.2,0c-0.1,0-0.2-0.2-0.1-0.2c0.1-0.2,0.2-0.4,0.3-0.5c2.6-3.7,5.2-7.3,7.7-11c0.9-1.3,1.8-2.5,2.7-3.8
		c0.1-0.1,0.1-0.2,0.2-0.3c0.2-0.3,0.4-0.4,0.7-0.4c0.7,0,1.4,0,2.1,0c0.3,0,0.5,0.1,0.6,0.3c0.3,0.5,0.7,0.9,1,1.4
		c1.8,2.6,3.6,5.2,5.4,7.7c1.4,2,2.8,4,4.2,5.9c0.1,0.1,0.2,0.3,0.3,0.5c0,0.1,0,0.1,0,0.2c0,0.1-0.1,0.1-0.3,0.1
		c-0.3,0-0.6,0-0.9,0C244.3,77.4,244.1,77.4,243.8,77.4L243.8,77.4z M233,70.7c0.9,0,1.7,0,2.6,0c0.2,0,0.5,0,0.7,0
		c0.3,0,0.4-0.2,0.3-0.4c-0.1-0.2-0.2-0.4-0.3-0.5c-0.7-1.1-1.3-2.1-2-3.2c-0.3-0.5-0.6-1-1-1.5c-0.2-0.3-0.4-0.3-0.6,0
		c-0.1,0.1-0.1,0.2-0.2,0.3c-0.6,0.9-1.2,1.9-1.8,2.8c-0.3,0.5-0.7,1.1-1,1.6c-0.1,0.2-0.2,0.3-0.3,0.5c-0.1,0.2,0,0.4,0.2,0.4
		c0.2,0,0.5,0,0.7,0C231.3,70.7,232.2,70.7,233,70.7"/>
	<path class="st0" d="M303.7,61.4c0.5,0,0.9,0,1.4,0c0.5,0,0.7,0.2,1,0.5c0.2,0.3,0.4,0.6,0.6,0.9c1.6,2.2,3.2,4.5,4.7,6.7
		c0.8,1.1,1.5,2.2,2.3,3.3c0.1,0.1,0.2,0.3,0.3,0.4c0.2,0.3,0.4,0.3,0.7,0c0.4-0.6,0.8-1.1,1.2-1.7c2-2.8,3.9-5.5,5.9-8.3
		c0.3-0.4,0.5-0.8,0.8-1.1c0.1-0.1,0.2-0.3,0.3-0.4c0.1-0.1,0.3-0.2,0.5-0.2c0.1,0,0.2,0,0.2,0c1,0,2,0,3,0c0.1,0,0.2,0,0.3,0
		c0.1,0,0.1,0.1,0.1,0.2c-0.1,0.2-0.2,0.3-0.3,0.5c-1.7,2.4-3.4,4.7-5.1,7.1c-1.8,2.5-3.5,4.9-5.3,7.4c-0.1,0.1-0.1,0.2-0.2,0.3
		c-0.4,0.6-0.4,0.6-1.1,0.6c-0.5,0-1.1,0-1.6,0c-0.2,0-0.3,0-0.5,0c-0.1,0-0.2-0.1-0.3-0.1c-0.1-0.2-0.3-0.3-0.4-0.5
		c-1.2-1.7-2.5-3.5-3.7-5.2c-1.7-2.4-3.4-4.8-5.1-7.2c-0.6-0.8-1.1-1.6-1.7-2.3c-0.1-0.1-0.2-0.3-0.2-0.4c0,0,0-0.1,0.1-0.1
		c0.1,0,0.1-0.1,0.2-0.1C302.5,61.4,303.1,61.4,303.7,61.4L303.7,61.4z"/>
	<path class="st0" d="M191.1,61.4c0.5,0,1,0,1.5,0c0.4,0,0.7,0.2,1,0.5c0.2,0.4,0.5,0.7,0.8,1.1c2.1,2.9,4.1,5.8,6.2,8.7
		c0.3,0.4,0.6,0.9,0.9,1.3c0.1,0.1,0.2,0.2,0.3,0.4c0.1,0.1,0.3,0.1,0.4,0c0.1-0.1,0.2-0.2,0.3-0.4c1-1.4,2.1-2.9,3.1-4.3
		c1.2-1.6,2.3-3.3,3.5-4.9c0.4-0.6,0.8-1.1,1.2-1.7c0.1-0.1,0.2-0.3,0.3-0.4c0.1-0.2,0.3-0.3,0.5-0.3c0.7,0,1.5,0,2.2,0
		c0.4,0,0.9,0,1.3,0c0,0,0.1,0.1,0.1,0.1c-0.1,0.1-0.1,0.2-0.2,0.3c-1.1,1.5-2.2,3.1-3.3,4.6c-1.4,2-2.9,4-4.3,6
		c-1,1.5-2.1,2.9-3.1,4.4c-0.1,0.1-0.2,0.2-0.2,0.3c-0.1,0.1-0.2,0.2-0.3,0.2c0,0-0.1,0-0.1,0c-0.8,0-1.6,0-2.3,0
		c-0.2,0-0.4-0.1-0.5-0.3c-0.2-0.3-0.4-0.5-0.6-0.8c-3.3-4.6-6.5-9.2-9.8-13.7c-0.2-0.3-0.4-0.6-0.7-1c-0.1-0.1,0-0.2,0.1-0.2
		c0.1,0,0.3,0,0.4,0C190.2,61.4,190.7,61.4,191.1,61.4z"/>
	<path class="st0" d="M287.9,61.4c2.1,0,4.2,0,6.3,0c0.2,0,0.5,0,0.7,0c0.2,0,0.3,0.2,0.3,0.3c0,0.5,0,0.9,0,1.4
		c0,0.1-0.2,0.3-0.3,0.3c-0.2,0-0.4,0-0.6,0c-1.1,0-2.3,0-3.4,0c-0.2,0-0.5,0-0.7,0c-0.1,0-0.2,0.1-0.2,0.2c0,0.1-0.1,0.2-0.1,0.3
		c0,0.2,0,0.4,0,0.6c0,3.2,0,6.4,0,9.5c0,0.3,0,0.6,0.1,0.9c0,0.2,0.2,0.3,0.3,0.3c0.2,0,0.5,0,0.7,0c1.2,0,2.3,0,3.5,0
		c0.2,0,0.4,0,0.5,0c0.1,0,0.3,0.2,0.3,0.3c0,0.5,0,1,0,1.5c0,0.1-0.2,0.2-0.3,0.3c-0.2,0-0.4,0-0.6,0c-1.2,0-2.4,0-3.6,0
		c-3,0-6,0-9,0c-0.2,0-0.5,0-0.7,0c-0.4,0-0.5-0.1-0.5-0.5c0-0.3,0-0.7,0-1c0-0.4,0.1-0.5,0.5-0.5c0.2,0,0.4,0,0.6,0
		c1.1,0,2.2,0,3.3,0c0.2,0,0.5,0,0.7,0c0.1,0,0.3-0.2,0.3-0.3c0-0.1,0-0.2,0-0.2c0-0.1,0-0.2,0-0.3c0-3.4,0-6.7,0-10.1
		c0-0.2,0-0.4,0-0.5c0-0.2-0.2-0.3-0.4-0.3c-0.2,0-0.5,0-0.7,0c-1.1,0-2.2,0-3.4,0c-0.2,0-0.4,0-0.6,0c-0.2,0-0.3-0.1-0.3-0.3
		c0-0.5,0-0.9,0-1.4c0-0.2,0.2-0.3,0.3-0.3c0.2,0,0.5,0,0.7,0C283.6,61.4,285.7,61.4,287.9,61.4"/>
	<path class="st0" d="M262.3,61.4c3.2,0,6.4,0,9.5,0c0.3,0,0.5,0,0.8,0c0.2,0,0.3,0.1,0.3,0.3c0,0.5,0,0.9,0,1.4
		c0,0.2-0.2,0.3-0.4,0.3c-0.2,0-0.5,0-0.7,0c-2.2,0-4.3,0-6.5,0c-0.3,0-0.5,0-0.8,0c-0.2,0-0.3,0.2-0.4,0.4c0,0.1,0,0.2,0,0.3
		c0,0.3,0,0.5,0,0.8c0,3.8,0,7.6,0,11.4c0,0.3,0,0.6,0,0.9c0,0.1-0.1,0.3-0.3,0.3c-0.1,0-0.2,0-0.2,0c-0.9,0-1.9,0-2.8,0
		c-0.1,0-0.2,0-0.2,0c-0.1,0-0.2-0.1-0.2-0.2c0-0.1-0.1-0.2-0.1-0.3c0-0.3,0-0.5,0-0.8c0-3.7,0-7.4,0-11.2c0-0.3,0-0.5,0-0.8
		c0-0.1,0-0.3,0-0.4c0-0.2-0.2-0.3-0.4-0.4c-0.1,0-0.2,0-0.3,0c-0.2,0-0.5,0-0.7,0c-2.1,0-4.2,0-6.3,0c-0.2,0-0.5,0-0.7,0
		c-0.1,0-0.2-0.2-0.3-0.3c0-0.1,0-0.2,0-0.3c0-0.3,0-0.6,0-0.9c0-0.5,0.1-0.6,0.6-0.6c0.2,0,0.4,0,0.6,0
		C256,61.4,259.1,61.4,262.3,61.4"/>
	<path class="st1" d="M103,5.5c-0.1-0.1-0.2-0.2-0.3-0.3c-0.7-0.6-1.8-0.5-2.6-0.1c-1.7,0.9-3,2.4-4.8,3.1
		c-9.2,3.8-22.8,7.2-29.5,11.4c-6.6,4.2-11.7,8.4-13.1,16.9c-1.4,8.5,1.2,14,6.3,12.9C45.8,27.5,76.3,15.7,93,11
		C76.6,30,72.1,62.5,62.8,84.8c-6.4,15.2-26.5,28.1-41.6,16.7c-12.6-9.5-10.7-28.8-0.1-39c6.7-6.4,16.7-9.5,25.8-7.6
		c2.5,0.5,4.9,1.6,6.6,3.5c1.5,1.8,2.5,3.9,2.7,6.3c0.3,4.3-2.2,6.8-0.2,6.9c6.3-1.8,4.2-10.3,1.1-14.1c-2.6-3.2-6.6-5.2-10.6-5.9
		c-6.1-1.1-12.9-0.1-18.5,2.3c-5.7,2.5-10.9,6.5-14.1,11.8c-4.9,8-5.8,19.5-2.3,28.2c5.4,13.4,21.5,17.2,33.7,12.8
		c16-5.7,25.9-21.8,31.3-36.9c3.9-11,6.3-22.7,10.1-33.8c3.3-9.5,7.6-19.1,14.9-26.2c0.6-0.6,1.3-1.2,1.6-2
		C103.3,6.9,103.4,6.1,103,5.5"/>
	<path d="M330.1,89.4c0-0.7,0-1.4,0-2.1c0-0.2,0.2-0.4,0.4-0.5c0.1,0,0.3,0,0.4,0c1.1,0,2.3,0,3.4,0c0.6,0,1.2,0.1,1.8,0.3
		c0.3,0.1,0.6,0.3,0.9,0.5c0.3,0.3,0.6,0.6,0.8,1c0.3,0.8,0.2,1.5-0.4,2.2c-0.2,0.3-0.5,0.5-0.8,0.6c-0.5,0.3-0.9,0.4-1.5,0.5
		c-0.5,0.1-1,0.1-1.6,0.1c-0.9,0-1.8,0-2.7,0c-0.2,0-0.5,0-0.7-0.1c-0.1-0.1-0.2-0.2-0.2-0.3c0-0.2,0-0.5,0-0.7
		C330.1,90.4,330.1,89.9,330.1,89.4L330.1,89.4z M331.4,89.4L331.4,89.4c0,0.5,0,0.9,0,1.4c0,0.1,0,0.3,0,0.4c0,0.1,0.1,0.1,0.2,0.1
		c0.1,0,0.2,0,0.3,0c0.7,0,1.5,0,2.2,0c0.2,0,0.4,0,0.6,0c0.6-0.1,1.1-0.3,1.5-0.7c0.6-0.7,0.6-1.7,0-2.3c-0.3-0.4-0.7-0.6-1.2-0.7
		c-0.4-0.1-0.8-0.1-1.2-0.1c-0.6,0-1.2,0-1.9,0c-0.1,0-0.3,0-0.4,0c-0.1,0-0.1,0.1-0.2,0.1c0,0.1,0,0.3-0.1,0.4
		C331.4,88.5,331.4,88.9,331.4,89.4"/>
	<path d="M111.9,92.1c-0.8,0-1.5-0.1-2.2-0.3c-0.4-0.1-0.7-0.3-1.1-0.5c-0.3-0.2-0.5-0.4-0.8-0.7c-0.6-0.7-0.6-1.6,0-2.4
		c0.3-0.4,0.6-0.6,1-0.8c0.6-0.3,1.2-0.5,1.8-0.6c0.8-0.1,1.7-0.1,2.5,0c0.7,0.1,1.3,0.3,1.9,0.6c0.3,0.2,0.6,0.4,0.9,0.7
		c0.6,0.7,0.6,1.8,0,2.5c-0.3,0.3-0.6,0.6-1,0.8c-0.7,0.4-1.5,0.6-2.3,0.6C112.4,92.1,112.1,92.1,111.9,92.1 M111.9,87.4
		c-0.6,0-1.2,0.1-1.8,0.3c-0.3,0.1-0.6,0.3-0.9,0.5c-0.7,0.7-0.7,1.6,0,2.3c0.3,0.3,0.6,0.5,1,0.6c0.7,0.2,1.4,0.4,2.1,0.3
		c0.5-0.1,1-0.1,1.5-0.4c0.3-0.2,0.6-0.3,0.8-0.6c0.5-0.6,0.5-1.5,0-2.1c-0.3-0.3-0.6-0.5-0.9-0.6C113.2,87.5,112.6,87.4,111.9,87.4
		"/>
	<path d="M192.1,92.1c-0.8,0-1.6-0.1-2.3-0.3c-0.4-0.1-0.7-0.3-1.1-0.5c-0.3-0.2-0.5-0.4-0.8-0.7c-0.6-0.7-0.6-1.7,0-2.4
		c0.3-0.4,0.6-0.6,1-0.8c0.5-0.3,1-0.4,1.5-0.5c1.2-0.2,2.4-0.2,3.6,0.1c0.5,0.1,1,0.3,1.4,0.6c0.3,0.2,0.6,0.4,0.8,0.8
		c0.4,0.7,0.5,1.4,0.1,2.1c-0.2,0.3-0.5,0.6-0.8,0.8c-0.3,0.2-0.7,0.4-1.1,0.5C193.7,92,192.9,92.2,192.1,92.1 M192.1,91.5
		c0.5,0,0.9-0.1,1.4-0.2c0.4-0.1,0.7-0.2,1-0.4c0.3-0.2,0.5-0.4,0.7-0.7c0.3-0.5,0.3-1,0-1.6c-0.1-0.3-0.3-0.4-0.6-0.6
		c-0.3-0.2-0.6-0.4-1-0.5c-0.7-0.2-1.4-0.2-2.2-0.1c-0.5,0.1-0.9,0.2-1.3,0.4c-0.3,0.1-0.5,0.3-0.7,0.5c-0.2,0.3-0.4,0.6-0.4,0.9
		c0,0.5,0.2,1,0.5,1.3c0.3,0.3,0.6,0.4,0.9,0.5C191,91.4,191.5,91.4,192.1,91.5"/>
	<path d="M214.2,89.4c0,0.7,0,1.5,0,2.2c0,0.2-0.1,0.3-0.3,0.4c-0.3,0.1-0.6,0.1-0.8-0.1c-0.2-0.1-0.4-0.3-0.6-0.4
		c-1.4-1-2.7-2-4.1-3c-0.1-0.1-0.3-0.2-0.5-0.3c0,0-0.1,0-0.1,0.1c0,0.2,0,0.3,0,0.5c0,0.8,0,1.7,0,2.5c0,0.2,0,0.3,0,0.5
		c0,0.1-0.1,0.1-0.1,0.2c-0.2,0.2-0.5,0.2-0.7,0.1c-0.1,0-0.2-0.1-0.2-0.2c0-0.1,0-0.3,0-0.4c0-1.3,0-2.5,0-3.8c0-0.1,0-0.3,0-0.4
		c0-0.1,0.2-0.3,0.3-0.3c0.3-0.1,0.7,0,1,0.2c0.8,0.6,1.5,1.1,2.3,1.7c0.8,0.6,1.5,1.1,2.3,1.7c0.1,0.1,0.2,0.1,0.3,0.2
		c0,0,0.1,0,0.1-0.1c0-0.1,0-0.3,0-0.4c0-0.8,0-1.6,0-2.4c0-0.2,0-0.4,0-0.6c0-0.1,0.2-0.3,0.3-0.3s0.3,0,0.5,0
		c0.2,0,0.3,0.2,0.3,0.3c0,0.2,0,0.3,0,0.5C214.2,88.2,214.2,88.8,214.2,89.4L214.2,89.4z"/>
	<path d="M94.6,92.1c-0.8,0-1.5-0.1-2.2-0.3c-0.3-0.1-0.5-0.2-0.8-0.3c-0.1,0-0.1-0.1-0.2-0.1c-0.1-0.1-0.1-0.2,0-0.3
		c0.1-0.1,0.2-0.1,0.3-0.2c0.3-0.1,0.5,0,0.8,0.1c0.5,0.3,1,0.4,1.6,0.5c0.6,0.1,1.2,0.1,1.9-0.1c0.3-0.1,0.5-0.2,0.7-0.3
		c0.2-0.2,0.2-0.5,0-0.7c-0.1-0.1-0.3-0.2-0.5-0.3c-0.4-0.1-0.9-0.2-1.3-0.3c-0.6-0.1-1.2-0.1-1.8-0.3c-0.2-0.1-0.5-0.1-0.7-0.2
		c-0.2-0.1-0.3-0.2-0.5-0.3c-0.5-0.4-0.5-1.1,0-1.5c0.3-0.2,0.6-0.4,0.9-0.5c0.6-0.2,1.3-0.3,1.9-0.3c0.7,0,1.4,0.1,2,0.3
		c0.3,0.1,0.6,0.2,0.9,0.4c0.1,0,0.1,0.1,0.2,0.2c0,0.1,0,0.2,0,0.2c-0.1,0.1-0.2,0.1-0.3,0.2c-0.2,0.1-0.5,0-0.7-0.1
		c-0.9-0.4-1.8-0.5-2.8-0.4c-0.3,0-0.5,0.1-0.8,0.2c-0.1,0-0.2,0.1-0.3,0.2c-0.2,0.2-0.2,0.5,0,0.7c0.2,0.1,0.3,0.2,0.5,0.3
		c0.3,0.1,0.7,0.2,1,0.2c0.6,0.1,1.2,0.2,1.8,0.3c0.3,0,0.5,0.1,0.7,0.2c0.2,0.1,0.4,0.2,0.6,0.4c0.4,0.4,0.4,1,0,1.4
		c-0.2,0.2-0.5,0.4-0.8,0.5c-0.5,0.2-1,0.3-1.5,0.3C95.1,92.1,94.8,92.1,94.6,92.1"/>
	<path d="M149.3,88.7c0,0.4,0,0.9,0,1.3c0,0.4-0.2,0.8-0.5,1c-0.3,0.3-0.7,0.5-1.1,0.7c-0.4,0.2-0.8,0.3-1.3,0.3
		c-0.8,0.1-1.6,0.1-2.4-0.1c-0.4-0.1-0.7-0.2-1.1-0.4c-0.2-0.1-0.4-0.3-0.6-0.5c-0.2-0.2-0.3-0.5-0.3-0.9c0-1,0-1.9,0-2.9
		c0-0.2,0.2-0.4,0.4-0.4c0.2,0,0.3,0,0.5,0c0.2,0,0.4,0.2,0.4,0.4c0,0.2,0,0.5,0,0.7c0,0.7,0,1.4,0,2c0,0.4,0.2,0.7,0.4,0.9
		c0.2,0.1,0.3,0.2,0.5,0.3c1,0.4,1.9,0.3,2.9,0c0.2-0.1,0.3-0.2,0.5-0.3c0.3-0.2,0.4-0.5,0.4-0.8c0-0.2,0-0.3,0-0.5
		c0-0.5,0-1.1,0-1.6c0-0.2,0-0.4,0-0.5c0-0.5,0.2-0.6,0.7-0.6c0.1,0,0.2,0,0.2,0.1c0.1,0,0.2,0.1,0.2,0.2c0,0.1,0,0.3,0,0.4
		c0,0.1,0,0.1,0,0.2C149.3,88,149.3,88.4,149.3,88.7L149.3,88.7z"/>
	<path d="M239,86.8c0.5,0,1.1,0,1.6,0c0.5,0,0.9,0.1,1.4,0.3c0.2,0.1,0.4,0.3,0.6,0.4c0.5,0.4,0.4,1.2,0,1.6
		c-0.4,0.4-0.8,0.6-1.4,0.7c-0.4,0.1-0.7,0.1-1.1,0.1c-0.6,0-1.2,0-1.8,0c-0.1,0-0.2,0-0.3,0c-0.1,0-0.3,0.1-0.3,0.2
		c0,0.2,0,0.4,0,0.5c0,0.3,0,0.6,0,0.9c0,0.1-0.1,0.2-0.2,0.3c-0.2,0.1-0.3,0.1-0.5,0.1c-0.3-0.1-0.4-0.1-0.4-0.4c0-0.2,0-0.3,0-0.5
		c0-1.1,0-2.3,0-3.4c0-0.2,0-0.4,0-0.5c0-0.1,0.2-0.3,0.3-0.3c0.2,0,0.3,0,0.5,0C238,86.8,238.5,86.8,239,86.8L239,86.8z
		 M239.3,89.4L239.3,89.4c0.3,0,0.5,0,0.8,0c0.1,0,0.1,0,0.2,0c0.2,0,0.4,0,0.5,0c0.3-0.1,0.6-0.2,0.8-0.5c0.2-0.3,0.2-0.7,0-0.9
		c-0.1-0.2-0.3-0.3-0.5-0.3c-0.2-0.1-0.5-0.1-0.8-0.1c-0.7,0-1.3,0-2,0c-0.1,0-0.2,0-0.2,0c-0.1,0-0.2,0.1-0.2,0.3
		c0,0.5,0,0.9,0,1.4c0,0.1,0.1,0.2,0.2,0.2c0.1,0,0.2,0,0.3,0C238.7,89.4,239,89.4,239.3,89.4"/>
	<path d="M252.7,86.8c0.4,0,0.6,0.1,0.7,0.2c0.1,0.2,0.3,0.4,0.4,0.6c0.7,0.9,1.4,1.8,2.1,2.7c0.1,0.1,0.2,0.3,0.4,0.4
		c0,0,0.2,0,0.2,0c0.1-0.2,0.3-0.3,0.4-0.5c0.6-0.9,1.3-1.8,1.9-2.7c0.1-0.1,0.2-0.3,0.3-0.4c0.3-0.3,0.6-0.4,1.1-0.2
		c0,0,0.1,0.1,0.1,0.1c0.1,0.1,0.1,0.1,0.1,0.2c-0.1,0.2-0.2,0.3-0.3,0.5c-1,1.3-1.9,2.6-2.9,3.9c-0.1,0.1-0.1,0.2-0.2,0.2
		c-0.3,0.4-1,0.4-1.3,0c0,0-0.1-0.1-0.1-0.1c-1-1.4-2-2.7-3.1-4.1c0,0-0.1-0.1-0.1-0.1c-0.1-0.1-0.2-0.2-0.1-0.4
		C252.4,86.9,252.6,86.8,252.7,86.8C252.8,86.8,252.9,86.8,252.7,86.8"/>
	<path d="M316.5,86.8c0.9,0,1.8,0,2.7,0c0.2,0,0.4,0,0.6,0c0.1,0,0.1,0.1,0.2,0.1c0.1,0.1,0.1,0.3,0,0.4c-0.1,0-0.1,0.1-0.2,0.1
		c-0.2,0-0.4,0-0.5,0c-0.5,0-0.9,0-1.4,0c-0.1,0-0.3,0-0.4,0c-0.2,0-0.3,0.1-0.3,0.3c0,0.2,0,0.4,0,0.6c0,0.9,0,1.8,0,2.7
		c0,0.2,0,0.4,0,0.6c0,0.2-0.1,0.3-0.3,0.3c-0.3,0.1-0.5,0.1-0.8,0c-0.2-0.1-0.3-0.2-0.3-0.3c0-0.2,0-0.4,0-0.6c0-0.9,0-1.9,0-2.8
		c0-0.2,0-0.4,0-0.5c0-0.1-0.1-0.2-0.2-0.2c-0.2,0-0.3,0-0.5,0c-0.5,0-0.9,0-1.4,0c-0.2,0-0.3,0-0.5,0c-0.1,0-0.1,0-0.2-0.1
		c-0.1,0-0.2-0.2-0.2-0.2c0-0.1,0.1-0.2,0.2-0.2c0.1,0,0.1,0,0.2-0.1c0.2,0,0.4,0,0.6,0C314.8,86.8,315.7,86.8,316.5,86.8"/>
	<path d="M273.3,86.8c0.9,0,1.8,0,2.7,0c0.2,0,0.4,0,0.6,0c0.1,0,0.2,0.1,0.3,0.1c0.1,0.1,0.1,0.3,0,0.3c-0.1,0-0.1,0.1-0.2,0.1
		c-0.2,0-0.4,0-0.6,0c-0.5,0-1,0-1.5,0c-0.1,0-0.3,0-0.4,0c-0.1,0-0.1,0.1-0.1,0.2c0,0.2,0,0.4,0,0.5c0,0.9,0,1.9,0,2.8
		c0,0.2,0,0.4,0,0.6c0,0.2-0.1,0.3-0.3,0.3c-0.2,0.1-0.4,0.1-0.6,0.1c-0.3-0.1-0.5-0.2-0.5-0.5c0-1,0-2.1,0-3.1c0-0.2,0-0.5,0-0.7
		c0-0.1-0.1-0.2-0.2-0.2c-0.2,0-0.4,0-0.5,0c-0.5,0-1.1,0-1.6,0c-0.1,0-0.3,0-0.4-0.1c-0.1,0-0.2-0.2-0.2-0.2c0-0.1,0.1-0.2,0.2-0.2
		c0.1,0,0.1-0.1,0.2-0.1c0.2,0,0.4,0,0.5,0C271.4,86.8,272.3,86.8,273.3,86.8"/>
	<path d="M162.8,86.8c0.9,0,1.8,0,2.7,0c0.2,0,0.4,0,0.6,0c0.1,0,0.1,0,0.2,0.1c0.1,0,0.2,0.2,0.1,0.3c0,0.1-0.1,0.1-0.1,0.2
		c-0.1,0-0.2,0.1-0.4,0.1c-0.5,0-1.1,0-1.6,0c-0.8,0-0.8,0-0.8,0.8c0,0.9,0,1.8,0,2.7c0,0.2,0,0.3,0,0.5c0,0.4-0.1,0.5-0.5,0.6
		c-0.2,0-0.4,0-0.6-0.1c-0.1-0.1-0.2-0.2-0.2-0.3c0-0.2,0-0.4,0-0.5c0-0.9,0-1.8,0-2.7c0-0.2,0-0.4,0-0.6c0-0.2-0.1-0.3-0.4-0.3
		c-0.5,0-1,0-1.5,0c-0.2,0-0.5,0-0.7,0c-0.1,0-0.2,0-0.2,0c-0.1,0-0.2-0.1-0.2-0.2c0-0.1,0.1-0.2,0.2-0.2c0.1,0,0.2-0.1,0.3-0.1
		c0.4,0,0.8,0,1.2,0C161.5,86.8,162.2,86.8,162.8,86.8"/>
	<path d="M300.8,92.1c-0.7,0-1.3,0-2,0c-0.2,0-0.4,0-0.5-0.1c-0.2,0-0.4-0.2-0.4-0.4c0-0.1,0-0.2,0-0.3c0-1.2,0-2.4,0-3.7
		c0-0.1,0-0.3,0-0.4c0-0.2,0.2-0.4,0.3-0.4c0.2,0,0.4,0,0.5,0c0.2,0,0.4,0.2,0.4,0.4c0,0.2,0,0.4,0,0.6c0,1,0,1.9,0,2.9
		c0,0.2,0,0.3,0,0.5c0,0,0.1,0.1,0.1,0.1c0.2,0,0.3,0,0.5,0c0.9,0,1.9,0,2.8,0c0.2,0,0.4,0,0.5,0c0.1,0,0.3,0.1,0.4,0.1
		c0.1,0,0.1,0.1,0.1,0.2c0,0.1-0.1,0.2-0.2,0.2c-0.1,0-0.3,0.1-0.4,0.1c-0.3,0-0.6,0-0.9,0C301.8,92.1,301.3,92.1,300.8,92.1z"/>
	<path d="M129.3,92.1c-0.7,0-1.4,0-2.1,0c-0.2,0-0.4,0-0.6-0.1c-0.1-0.1-0.2-0.1-0.2-0.2c0-0.1,0-0.2,0-0.2c0-1.4,0-2.7,0-4.1
		c0-0.5,0.2-0.6,0.6-0.6c0.2,0,0.3,0,0.5,0.1c0.1,0.1,0.2,0.1,0.2,0.2c0,0.2,0,0.4,0,0.5c0,0.9,0,1.9,0,2.8c0,0.2,0,0.4,0,0.6
		c0,0.1,0.1,0.2,0.3,0.2c0.2,0,0.4,0,0.6,0c0.9,0,1.7,0,2.6,0c0.2,0,0.4,0,0.5,0c0.2,0,0.3,0.1,0.4,0.2c0.1,0.1,0.1,0.2,0,0.3
		c-0.1,0.1-0.2,0.1-0.3,0.2c-0.2,0-0.4,0-0.5,0C130.6,92.1,130,92.1,129.3,92.1L129.3,92.1z"/>
	<path d="M177.6,89.5c0,0.6,0,1.2,0,1.9c0,0.1,0,0.3-0.1,0.4c0,0-0.1,0.1-0.1,0.1c-0.2,0.1-0.5,0.2-0.7,0.1
		c-0.2-0.1-0.4-0.2-0.4-0.4c0-0.2,0-0.4,0-0.5c0-1.1,0-2.1,0-3.2c0-0.2,0-0.4,0-0.5c0-0.3,0.2-0.5,0.4-0.5c0.2,0,0.4,0,0.5,0
		c0.1,0,0.3,0.2,0.3,0.3c0,0.2,0,0.3,0,0.5C177.6,88.3,177.6,88.9,177.6,89.5L177.6,89.5z"/>
	<path d="M348.3,91.2c0.1,0,0.3,0,0.4,0c0.2,0,0.3,0.2,0.3,0.4c0,0.2-0.1,0.3-0.2,0.4c-0.3,0.1-0.6,0.1-0.9,0
		c-0.1-0.1-0.2-0.2-0.2-0.4c0-0.2,0.1-0.4,0.3-0.4C348.1,91.2,348.2,91.2,348.3,91.2"/>
	<path d="M287.1,91.2c0.1,0,0.3,0,0.4,0c0.2,0,0.3,0.2,0.3,0.4c0,0.2-0.1,0.3-0.3,0.4c-0.3,0.1-0.6,0.1-0.8,0
		c-0.2-0.1-0.3-0.2-0.3-0.4c0-0.2,0.2-0.3,0.3-0.4C286.9,91.2,287,91.2,287.1,91.2"/>
	<rect class="st2" width="360.7" height="128.4"/>
</g>
</svg>
